<?xml version="1.0" encoding="UTF-8" standalone="no"?>
<svg
   inkscape:export-ydpi="243.84"
   inkscape:export-xdpi="243.84"
   inkscape:export-filename="../docs/16S/assets/pcoa.png"
   sodipodi:docname="pcoa.svg"
   inkscape:version="1.2.1 (9c6d41e410, 2022-07-14)"
   id="svg8"
   version="1.1"
   viewBox="0 0 200 80"
   height="80mm"
   width="200mm"
   xml:space="preserve"
   xmlns:inkscape="http://www.inkscape.org/namespaces/inkscape"
   xmlns:sodipodi="http://sodipodi.sourceforge.net/DTD/sodipodi-0.dtd"
   xmlns="http://www.w3.org/2000/svg"
   xmlns:svg="http://www.w3.org/2000/svg"
   xmlns:rdf="http://www.w3.org/1999/02/22-rdf-syntax-ns#"
   xmlns:cc="http://creativecommons.org/ns#"
   xmlns:dc="http://purl.org/dc/elements/1.1/"><defs
     id="defs2"><rect
       x="281.92508"
       y="129.32236"
       width="172.57774"
       height="63.241421"
       id="rect5350" /><rect
       x="230.76666"
       y="-76.903633"
       width="106.31976"
       height="66.521248"
       id="rect4323" /><rect
       x="637.16473"
       y="198.67558"
       width="135.39474"
       height="128.1534"
       id="rect3847" /><marker
       style="overflow:visible"
       id="marker2951"
       refX="0"
       refY="0"
       orient="auto-start-reverse"
       inkscape:stockid="TriangleStart"
       markerWidth="5.3244081"
       markerHeight="6.155385"
       viewBox="0 0 5.3244081 6.1553851"
       inkscape:isstock="true"
       inkscape:collect="always"
       preserveAspectRatio="xMidYMid"><path
         transform="scale(0.5)"
         style="fill:context-stroke;fill-rule:evenodd;stroke:context-stroke;stroke-width:1pt"
         d="M 5.77,0 -2.88,5 V -5 Z"
         id="path2949" /></marker><marker
       style="overflow:visible"
       id="TriangleStart"
       refX="0"
       refY="0"
       orient="auto-start-reverse"
       inkscape:stockid="TriangleStart"
       markerWidth="5.3244081"
       markerHeight="6.155385"
       viewBox="0 0 5.3244081 6.1553851"
       inkscape:isstock="true"
       inkscape:collect="always"
       preserveAspectRatio="xMidYMid"><path
         transform="scale(0.5)"
         style="fill:context-stroke;fill-rule:evenodd;stroke:context-stroke;stroke-width:1pt"
         d="M 5.77,0 -2.88,5 V -5 Z"
         id="path135" /></marker><rect
       x="774.78076"
       y="-14.19475"
       width="517.84088"
       height="309.09152"
       id="rect1230" /><rect
       x="800.1004"
       y="-16.425062"
       width="521.34338"
       height="298.84503"
       id="rect1170" /><marker
       inkscape:isstock="true"
       style="overflow:visible"
       id="TriangleInM"
       refX="0"
       refY="0"
       orient="auto"
       inkscape:stockid="TriangleInM"><path
         inkscape:connector-curvature="0"
         transform="scale(-0.4)"
         style="fill:#9e9e9e;fill-opacity:1;fill-rule:evenodd;stroke:#9e9e9e;stroke-width:1pt;stroke-opacity:1"
         d="M 5.77,0 -2.88,5 V -5 Z"
         id="path1065" /></marker><marker
       inkscape:isstock="true"
       style="overflow:visible"
       id="TriangleOutM"
       refX="0"
       refY="0"
       orient="auto"
       inkscape:stockid="TriangleOutM"><path
         inkscape:connector-curvature="0"
         transform="scale(0.4)"
         style="fill:#9e9e9e;fill-opacity:1;fill-rule:evenodd;stroke:#9e9e9e;stroke-width:1pt;stroke-opacity:1"
         d="M 5.77,0 -2.88,5 V -5 Z"
         id="path1074" /></marker><marker
       inkscape:isstock="true"
       style="overflow:visible"
       id="TriangleInS"
       refX="0"
       refY="0"
       orient="auto"
       inkscape:stockid="TriangleInS"
       viewBox="0 0 2.1297632 2.462154"
       markerWidth="2.1297631"
       markerHeight="2.4621539"
       preserveAspectRatio="xMidYMid"><path
         inkscape:connector-curvature="0"
         transform="scale(-0.2)"
         style="fill:#000000;fill-opacity:1;fill-rule:evenodd;stroke:#000000;stroke-width:1pt;stroke-opacity:1"
         d="M 5.77,0 -2.88,5 V -5 Z"
         id="path1068" /></marker><marker
       inkscape:isstock="true"
       style="overflow:visible"
       id="TriangleInM-9"
       refX="0"
       refY="0"
       orient="auto"
       inkscape:stockid="TriangleInM"><path
         transform="scale(-0.4)"
         style="fill:#9e9e9e;fill-opacity:1;fill-rule:evenodd;stroke:#9e9e9e;stroke-width:1pt;stroke-opacity:1"
         d="M 5.77,0 -2.88,5 V -5 Z"
         id="path1065-0"
         inkscape:connector-curvature="0" /></marker><marker
       inkscape:isstock="true"
       style="overflow:visible"
       id="TriangleOutM-2"
       refX="0"
       refY="0"
       orient="auto"
       inkscape:stockid="TriangleOutM"><path
         transform="scale(0.4)"
         style="fill:#9e9e9e;fill-opacity:1;fill-rule:evenodd;stroke:#9e9e9e;stroke-width:1pt;stroke-opacity:1"
         d="M 5.77,0 -2.88,5 V -5 Z"
         id="path1074-3"
         inkscape:connector-curvature="0" /></marker><marker
       inkscape:isstock="true"
       style="overflow:visible"
       id="TriangleInM-8"
       refX="0"
       refY="0"
       orient="auto"
       inkscape:stockid="TriangleInM"><path
         transform="scale(-0.4)"
         style="fill:#9e9e9e;fill-opacity:1;fill-rule:evenodd;stroke:#9e9e9e;stroke-width:1pt;stroke-opacity:1"
         d="M 5.77,0 -2.88,5 V -5 Z"
         id="path1065-6"
         inkscape:connector-curvature="0" /></marker><marker
       inkscape:isstock="true"
       style="overflow:visible"
       id="TriangleOutM-5"
       refX="0"
       refY="0"
       orient="auto"
       inkscape:stockid="TriangleOutM"><path
         transform="scale(0.4)"
         style="fill:#9e9e9e;fill-opacity:1;fill-rule:evenodd;stroke:#9e9e9e;stroke-width:1pt;stroke-opacity:1"
         d="M 5.77,0 -2.88,5 V -5 Z"
         id="path1074-7"
         inkscape:connector-curvature="0" /></marker><marker
       inkscape:isstock="true"
       style="overflow:visible"
       id="TriangleInM-9-6"
       refX="0"
       refY="0"
       orient="auto"
       inkscape:stockid="TriangleInM"><path
         transform="scale(-0.4)"
         style="fill:#9e9e9e;fill-opacity:1;fill-rule:evenodd;stroke:#9e9e9e;stroke-width:1pt;stroke-opacity:1"
         d="M 5.77,0 -2.88,5 V -5 Z"
         id="path1065-0-2"
         inkscape:connector-curvature="0" /></marker><marker
       inkscape:isstock="true"
       style="overflow:visible"
       id="TriangleOutM-2-7"
       refX="0"
       refY="0"
       orient="auto"
       inkscape:stockid="TriangleOutM"><path
         transform="scale(0.4)"
         style="fill:#9e9e9e;fill-opacity:1;fill-rule:evenodd;stroke:#9e9e9e;stroke-width:1pt;stroke-opacity:1"
         d="M 5.77,0 -2.88,5 V -5 Z"
         id="path1074-3-0"
         inkscape:connector-curvature="0" /></marker><marker
       style="overflow:visible"
       id="TriangleStart-9"
       refX="0"
       refY="0"
       orient="auto-start-reverse"
       inkscape:stockid="TriangleStart"
       markerWidth="5.3244081"
       markerHeight="6.155385"
       viewBox="0 0 5.3244081 6.1553851"
       inkscape:isstock="true"
       inkscape:collect="always"
       preserveAspectRatio="xMidYMid"><path
         transform="scale(0.5)"
         style="fill:context-stroke;fill-rule:evenodd;stroke:context-stroke;stroke-width:1pt"
         d="M 5.77,0 -2.88,5 V -5 Z"
         id="path135-3" /></marker><marker
       style="overflow:visible"
       id="marker2951-6"
       refX="0"
       refY="0"
       orient="auto-start-reverse"
       inkscape:stockid="TriangleStart"
       markerWidth="5.3244081"
       markerHeight="6.155385"
       viewBox="0 0 5.3244081 6.1553851"
       inkscape:isstock="true"
       inkscape:collect="always"
       preserveAspectRatio="xMidYMid"><path
         transform="scale(0.5)"
         style="fill:context-stroke;fill-rule:evenodd;stroke:context-stroke;stroke-width:1pt"
         d="M 5.77,0 -2.88,5 V -5 Z"
         id="path2949-0" /></marker><marker
       style="overflow:visible"
       id="TriangleStart-2"
       refX="0"
       refY="0"
       orient="auto-start-reverse"
       inkscape:stockid="TriangleStart"
       markerWidth="5.3244081"
       markerHeight="6.155385"
       viewBox="0 0 5.3244081 6.1553851"
       inkscape:isstock="true"
       inkscape:collect="always"
       preserveAspectRatio="xMidYMid"><path
         transform="scale(0.5)"
         style="fill:context-stroke;fill-rule:evenodd;stroke:context-stroke;stroke-width:1pt"
         d="M 5.77,0 -2.88,5 V -5 Z"
         id="path135-6" /></marker><marker
       style="overflow:visible"
       id="marker2951-1"
       refX="0"
       refY="0"
       orient="auto-start-reverse"
       inkscape:stockid="TriangleStart"
       markerWidth="5.3244081"
       markerHeight="6.155385"
       viewBox="0 0 5.3244081 6.1553851"
       inkscape:isstock="true"
       inkscape:collect="always"
       preserveAspectRatio="xMidYMid"><path
         transform="scale(0.5)"
         style="fill:context-stroke;fill-rule:evenodd;stroke:context-stroke;stroke-width:1pt"
         d="M 5.77,0 -2.88,5 V -5 Z"
         id="path2949-8" /></marker></defs><sodipodi:namedview
     inkscape:document-rotation="0"
     inkscape:window-maximized="1"
     inkscape:window-y="32"
     inkscape:window-x="0"
     inkscape:window-height="1020"
     inkscape:window-width="1920"
     showgrid="false"
     inkscape:current-layer="layer1"
     inkscape:document-units="mm"
     inkscape:cy="115.80891"
     inkscape:cx="332.68087"
     inkscape:zoom="1.3902212"
     inkscape:pageshadow="2"
     inkscape:pageopacity="0.0"
     borderopacity="1.0"
     bordercolor="#666666"
     pagecolor="#ffffff"
     id="base"
     inkscape:showpageshadow="0"
     inkscape:pagecheckerboard="0"
     inkscape:deskcolor="#d1d1d1"><inkscape:grid
       id="grid863"
       type="xygrid"
       originx="0"
       originy="0" /></sodipodi:namedview><metadata
     id="metadata5"><rdf:RDF><cc:Work
         rdf:about=""><dc:format>image/svg+xml</dc:format><dc:type
           rdf:resource="http://purl.org/dc/dcmitype/StillImage" /></cc:Work></rdf:RDF></metadata><g
     transform="translate(0,-230)"
     id="layer1"
     inkscape:groupmode="layer"
     inkscape:label="Layer 1"><g
       id="g3733"
       transform="translate(6.6528397,4.8636188)"><rect
         y="237.93216"
         x="27.585205"
         height="11.140068"
         width="11.140068"
         id="rect817"
         style="fill:#ffffff;fill-opacity:1;stroke:#eeeeee;stroke-width:0.926245;stroke-linecap:round;stroke-linejoin:round;stroke-miterlimit:4;stroke-dasharray:none;stroke-dashoffset:0;paint-order:normal" /><rect
         y="249.07224"
         x="27.585203"
         height="11.140068"
         width="11.140068"
         id="rect819"
         style="fill:#29b6f6;fill-opacity:1;stroke:#eeeeee;stroke-width:0.926245;stroke-linecap:round;stroke-linejoin:round;stroke-miterlimit:4;stroke-dasharray:none;stroke-dashoffset:0;paint-order:normal" /><rect
         y="249.07224"
         x="38.725273"
         height="11.140068"
         width="11.140068"
         id="rect821"
         style="fill:#ffffff;fill-opacity:1;stroke:#eeeeee;stroke-width:0.926245;stroke-linecap:round;stroke-linejoin:round;stroke-miterlimit:4;stroke-dasharray:none;stroke-dashoffset:0;paint-order:normal" /><rect
         y="260.21228"
         x="27.585203"
         height="11.140068"
         width="11.140068"
         id="rect825"
         style="fill:#b3e5fc;fill-opacity:1;stroke:#eeeeee;stroke-width:0.926245;stroke-linecap:round;stroke-linejoin:round;stroke-miterlimit:4;stroke-dasharray:none;stroke-dashoffset:0;paint-order:normal" /><rect
         y="260.21228"
         x="38.725273"
         height="11.140068"
         width="11.140068"
         id="rect827"
         style="fill:#e1f5fe;fill-opacity:1;stroke:#eeeeee;stroke-width:0.926245;stroke-linecap:round;stroke-linejoin:round;stroke-miterlimit:4;stroke-dasharray:none;stroke-dashoffset:0;paint-order:normal" /><rect
         y="260.21228"
         x="49.865341"
         height="11.140068"
         width="11.140068"
         id="rect829"
         style="fill:#ffffff;fill-opacity:1;stroke:#eeeeee;stroke-width:0.926245;stroke-linecap:round;stroke-linejoin:round;stroke-miterlimit:4;stroke-dasharray:none;stroke-dashoffset:0;paint-order:normal" /><flowRoot
         transform="matrix(0.13601302,0,0,0.13601302,4.9346617,250.00625)"
         style="font-style:normal;font-variant:normal;font-weight:normal;font-stretch:normal;font-size:40px;line-height:1.25;font-family:Lato;-inkscape-font-specification:Lato;letter-spacing:0px;word-spacing:0px;fill:#283593;fill-opacity:1;stroke:none"
         id="flowRoot845"
         xml:space="preserve"><flowRegion
           style="font-style:normal;font-variant:normal;font-weight:normal;font-stretch:normal;font-family:Lato;-inkscape-font-specification:Lato;fill:#283593"
           id="flowRegion841"><rect
             style="font-style:normal;font-variant:normal;font-weight:normal;font-stretch:normal;font-family:Lato;-inkscape-font-specification:Lato;fill:#283593;stroke-width:1"
             y="-73.500931"
             x="27.274118"
             height="76.771591"
             width="216.17264"
             id="rect839" /></flowRegion><flowPara
           id="flowPara843">Bogotá</flowPara></flowRoot><flowRoot
         transform="matrix(0.13601302,0,0,0.13601302,0.98791405,261.64143)"
         style="font-style:normal;font-variant:normal;font-weight:normal;font-stretch:normal;font-size:40px;line-height:1.25;font-family:Lato;-inkscape-font-specification:Lato;letter-spacing:0px;word-spacing:0px;fill:#d81b60;fill-opacity:1;stroke:none"
         id="flowRoot853"
         xml:space="preserve"><flowRegion
           style="font-style:normal;font-variant:normal;font-weight:normal;font-stretch:normal;font-family:Lato;-inkscape-font-specification:Lato;fill:#d81b60"
           id="flowRegion849"><rect
             style="font-style:normal;font-variant:normal;font-weight:normal;font-stretch:normal;font-family:Lato;-inkscape-font-specification:Lato;fill:#d81b60"
             y="-73.500931"
             x="27.274118"
             height="76.771591"
             width="216.17264"
             id="rect847" /></flowRegion><flowPara
           id="flowPara851">Santiago</flowPara></flowRoot><flowRoot
         transform="matrix(0.13601302,0,0,0.13601302,-6.9495854,272.7815)"
         style="font-style:normal;font-variant:normal;font-weight:normal;font-stretch:normal;font-size:40px;line-height:1.25;font-family:Lato;-inkscape-font-specification:Lato;letter-spacing:0px;word-spacing:0px;fill:#00796b;fill-opacity:1;stroke:none"
         id="flowRoot861"
         xml:space="preserve"><flowRegion
           style="font-style:normal;font-variant:normal;font-weight:normal;font-stretch:normal;font-family:Lato;-inkscape-font-specification:Lato;fill:#00796b"
           id="flowRegion857"><rect
             style="font-style:normal;font-variant:normal;font-weight:normal;font-stretch:normal;font-family:Lato;-inkscape-font-specification:Lato;fill:#00796b"
             y="-73.500931"
             x="27.274118"
             height="76.771591"
             width="216.17264"
             id="rect855" /></flowRegion><flowPara
           id="flowPara859">Montevideo</flowPara></flowRoot><flowRoot
         transform="matrix(0,-0.13601302,0.13601302,0,38.669761,294.21347)"
         style="font-style:normal;font-variant:normal;font-weight:normal;font-stretch:normal;font-size:40px;line-height:1.25;font-family:Lato;-inkscape-font-specification:Lato;letter-spacing:0px;word-spacing:0px;fill:#283593;fill-opacity:1;stroke:none"
         id="flowRoot845-6"
         xml:space="preserve"><flowRegion
           style="font-style:normal;font-variant:normal;font-weight:normal;font-stretch:normal;font-family:Lato;-inkscape-font-specification:Lato;fill:#283593"
           id="flowRegion841-7"><rect
             style="font-style:normal;font-variant:normal;font-weight:normal;font-stretch:normal;font-family:Lato;-inkscape-font-specification:Lato;fill:#283593;stroke-width:1"
             y="-73.500931"
             x="27.274118"
             height="76.771591"
             width="216.17264"
             id="rect839-5" /></flowRegion><flowPara
           id="flowPara843-3">Bogotá</flowPara></flowRoot><flowRoot
         transform="matrix(0,-0.13601302,0.13601302,0,50.259206,297.59802)"
         style="font-style:normal;font-variant:normal;font-weight:normal;font-stretch:normal;font-size:40px;line-height:1.25;font-family:Lato;-inkscape-font-specification:Lato;letter-spacing:0px;word-spacing:0px;fill:#d81b60;fill-opacity:1;stroke:none"
         id="flowRoot853-5"
         xml:space="preserve"><flowRegion
           style="font-style:normal;font-variant:normal;font-weight:normal;font-stretch:normal;font-family:Lato;-inkscape-font-specification:Lato;fill:#d81b60"
           id="flowRegion849-6"><rect
             style="font-style:normal;font-variant:normal;font-weight:normal;font-stretch:normal;font-family:Lato;-inkscape-font-specification:Lato;fill:#d81b60"
             y="-73.500931"
             x="27.274118"
             height="76.771591"
             width="216.17264"
             id="rect847-2" /></flowRegion><flowPara
           id="flowPara851-9">Santiago</flowPara></flowRoot><flowRoot
         transform="matrix(0,-0.13601302,0.13601302,0,62.535242,305.99945)"
         style="font-style:normal;font-variant:normal;font-weight:normal;font-stretch:normal;font-size:40px;line-height:1.25;font-family:Lato;-inkscape-font-specification:Lato;letter-spacing:0px;word-spacing:0px;fill:#00796b;fill-opacity:1;stroke:none"
         id="flowRoot861-1"
         xml:space="preserve"><flowRegion
           style="font-style:normal;font-variant:normal;font-weight:normal;font-stretch:normal;font-family:Lato;-inkscape-font-specification:Lato;fill:#00796b"
           id="flowRegion857-2"><rect
             style="font-style:normal;font-variant:normal;font-weight:normal;font-stretch:normal;font-family:Lato;-inkscape-font-specification:Lato;fill:#00796b"
             y="-73.500931"
             x="27.274118"
             height="76.771591"
             width="216.17264"
             id="rect855-7" /></flowRegion><flowPara
           id="flowPara859-0">Montevideo</flowPara></flowRoot><path
         style="fill:none;stroke:#9e9e9e;stroke-width:0.370498;stroke-linecap:round;stroke-linejoin:miter;stroke-miterlimit:4;stroke-dasharray:none;stroke-opacity:1"
         d="m 40.384606,238.96131 2.275641,-2.27564 19.955618,19.95562 -2.100591,2.10059"
         id="path2542"
         inkscape:connector-curvature="0" /><flowRoot
         xml:space="preserve"
         id="flowRoot2544"
         style="font-style:normal;font-variant:normal;font-weight:normal;font-stretch:normal;font-size:40px;line-height:1.25;font-family:Lato;-inkscape-font-specification:Lato;letter-spacing:0px;word-spacing:0px;fill:#757575;fill-opacity:1;stroke:none"
         transform="matrix(0.10042391,0.10042391,-0.10042391,0.10042391,50.058451,250.98491)"><flowRegion
           id="flowRegion2546"
           style="font-style:normal;font-variant:normal;font-weight:normal;font-stretch:normal;font-family:Lato;-inkscape-font-specification:Lato;fill:#757575"><rect
             id="rect2548"
             width="560.63464"
             height="84.852814"
             x="-55.558392"
             y="-91.683678"
             style="font-style:normal;font-variant:normal;font-weight:normal;font-stretch:normal;font-family:Lato;-inkscape-font-specification:Lato;fill:#757575" /></flowRegion><flowPara
           id="flowPara2550">β div.</flowPara></flowRoot><flowRoot
         transform="matrix(0.13100895,0,0,0.13100895,30.246066,258.30073)"
         style="font-style:normal;font-variant:normal;font-weight:normal;font-stretch:normal;font-size:40px;line-height:1.25;font-family:sans-serif;-inkscape-font-specification:sans-serif;letter-spacing:0px;word-spacing:0px;fill:#000000;fill-opacity:1;stroke:none"
         id="flowRoot2720"
         xml:space="preserve"><flowRegion
           id="flowRegion2716"><rect
             y="-134.11008"
             x="8.0812206"
             height="45.456863"
             width="84.852814"
             id="rect2714" /></flowRegion><flowPara
           id="flowPara2718">0</flowPara></flowRoot><flowRoot
         transform="matrix(0.13100895,0,0,0.13100895,41.694508,269.35909)"
         style="font-style:normal;font-variant:normal;font-weight:normal;font-stretch:normal;font-size:40px;line-height:1.25;font-family:sans-serif;-inkscape-font-specification:sans-serif;letter-spacing:0px;word-spacing:0px;fill:#000000;fill-opacity:1;stroke:none"
         id="flowRoot2720-8"
         xml:space="preserve"><flowRegion
           id="flowRegion2716-0"><rect
             y="-134.11008"
             x="8.0812206"
             height="45.456863"
             width="84.852814"
             id="rect2714-4" /></flowRegion><flowPara
           id="flowPara2718-6">0</flowPara></flowRoot><flowRoot
         transform="matrix(0.13100895,0,0,0.13100895,52.834576,280.00404)"
         style="font-style:normal;font-variant:normal;font-weight:normal;font-stretch:normal;font-size:40px;line-height:1.25;font-family:sans-serif;-inkscape-font-specification:sans-serif;letter-spacing:0px;word-spacing:0px;fill:#000000;fill-opacity:1;stroke:none"
         id="flowRoot2720-0"
         xml:space="preserve"><flowRegion
           id="flowRegion2716-3"><rect
             y="-134.11008"
             x="8.0812206"
             height="45.456863"
             width="84.852814"
             id="rect2714-2" /></flowRegion><flowPara
           id="flowPara2718-69">0</flowPara></flowRoot><flowRoot
         xml:space="preserve"
         id="flowRoot2804"
         style="font-style:normal;font-variant:normal;font-weight:normal;font-stretch:normal;font-size:40px;line-height:1.25;font-family:sans-serif;-inkscape-font-specification:sans-serif;letter-spacing:0px;word-spacing:0px;fill:#000000;fill-opacity:1;stroke:none"
         transform="matrix(0.13100895,0,0,0.13100895,39.218937,280.49916)"><flowRegion
           id="flowRegion2800"><rect
             id="rect2798"
             width="84.852814"
             height="45.456863"
             x="8.0812206"
             y="-134.11008" /></flowRegion><flowPara
           id="flowPara2802">0.2</flowPara></flowRoot><flowRoot
         xml:space="preserve"
         id="flowRoot2812"
         style="font-style:normal;font-variant:normal;font-weight:normal;font-stretch:normal;font-size:40px;line-height:1.25;font-family:sans-serif;-inkscape-font-specification:sans-serif;letter-spacing:0px;word-spacing:0px;fill:#000000;fill-opacity:1;stroke:none"
         transform="matrix(0.13100895,0,0,0.13100895,27.831312,280.2516)"><flowRegion
           id="flowRegion2808"><rect
             id="rect2806"
             width="84.852814"
             height="45.456863"
             x="8.0812206"
             y="-134.11008" /></flowRegion><flowPara
           id="flowPara2810">0.5</flowPara></flowRoot><flowRoot
         xml:space="preserve"
         id="flowRoot2820"
         style="font-style:normal;font-variant:normal;font-weight:normal;font-stretch:normal;font-size:40px;line-height:1.25;font-family:sans-serif;-inkscape-font-specification:sans-serif;letter-spacing:0px;word-spacing:0px;fill:#000000;fill-opacity:1;stroke:none"
         transform="matrix(0.13100895,0,0,0.13100895,27.583754,269.35909)"><flowRegion
           id="flowRegion2816"><rect
             id="rect2814"
             width="84.852814"
             height="45.456863"
             x="8.0812206"
             y="-134.11008" /></flowRegion><flowPara
           id="flowPara2818">0.7</flowPara></flowRoot></g><text
       xml:space="preserve"
       transform="matrix(0.26458333,0,0,0.26458333,4.4722844e-8,230)"
       id="text1168"
       style="font-size:10.6667px;line-height:1.25;font-family:sans-serif;-inkscape-font-specification:sans-serif;text-decoration:none;text-decoration-line:none;text-decoration-color:#000000;white-space:pre;shape-inside:url(#rect1170);display:inline;fill:#26a69a;stroke-width:1.00157;stroke-linecap:round;stroke-linejoin:bevel;paint-order:stroke fill markers;stop-color:#000000" /><text
       xml:space="preserve"
       transform="matrix(0.26458333,0,0,0.26458333,4.4722844e-8,230)"
       id="text1228"
       style="font-size:10.6667px;line-height:1.25;font-family:sans-serif;-inkscape-font-specification:sans-serif;text-decoration:none;text-decoration-line:none;text-decoration-color:#000000;white-space:pre;shape-inside:url(#rect1230);display:inline;fill:#26a69a;stroke-width:1.00157;stroke-linecap:round;stroke-linejoin:bevel;paint-order:stroke fill markers;stop-color:#000000" /><g
       style="font-family:'Times New Roman';stroke:#9e9e9e;stroke-miterlimit:10"
       id="g1496"
       transform="matrix(0.57188268,0,0,0.57188268,136.7746,230.49478)"><polyline
         id="polyline10"
         stroke="#000000"
         points="52.23 15.13 52.56 15.39 52.73 15.72 53.06 15.89 52.98 16.22 53.06 16.55 53.06 16.88 53.23 17.22 53.4 17.55 53.31 17.88 53.47 18.21 53.4 18.55 53.56 18.88 53.81 19.21 54.14 19.21 54.47 19.38 54.8 19.62 54.97 19.95 55.06 20.28 54.73 20.54 54.47 20.87 54.14 21.2 53.81 21.54 53.4 21.87 53.06 22.04 52.81 22.37 52.48 22.61 52.23 22.94 52.23 23.28 52.07 23.61 51.81 23.94 51.48 24.27 51.23 24.61 51.57 24.61 52.4 24.36 52.73 24.27 52.9 23.94 52.9 23.61 53.23 23.44 53.47 23.78 53.73 24.11 53.81 23.78 53.56 23.44 53.64 23.11 53.9 22.78 54.23 22.61 54.56 22.61 54.89 22.61 55.23 22.7 55.56 22.7 55.89 22.61 56.22 22.53 56.56 22.37 56.89 22.37 57.22 22.45 57.72 22.78 57.46 23.11 57.39 23.44 57.3 23.78 57.13 24.11 56.89 24.44 56.56 24.77 56.22 24.86 55.89 24.77 55.56 25.03 55.23 25.19 54.89 25.11 54.56 25.03 54.23 25.11 53.9 25.19 53.56 25.19 53.23 25.19 52.9 25.03 52.48 24.94 52.14 25.11 52.14 25.44 52.56 25.19 52.9 25.36 53.23 25.44 53.56 25.53 53.9 25.53 54.23 25.36 54.56 25.44 54.89 25.44 55.23 25.53 55.56 25.53 55.89 25.36 55.97 25.69 56.3 25.44 56.39 25.11 56.72 25.03 57.05 24.77 57.39 24.77 57.46 24.44 57.72 24.11 57.89 23.78 58.13 23.44 58.46 23.28 58.79 23.44 59.13 23.53 59.46 23.78 59.79 23.86 60.12 23.94 60.46 24.2 60.79 24.36 61.21 24.53 61.62 24.7 61.95 24.61 62.29 24.77 62.62 25.03 62.71 25.36 63.04 25.19 63.37 25.27 63.7 25.53 63.95 25.86 63.95 26.19 63.87 26.52 63.95 26.86 63.87 27.27 63.87 27.6 63.62 27.93 63.95 28.02 64.2 27.69 64.28 27.36 64.37 27.02 64.7 26.93 64.95 27.27 65.37 27.19 65.53 26.86 65.7 26.52 66.03 26.69 66.36 26.86 66.7 27.1 67.03 27.27 67.36 27.36 67.69 27.69 68.03 27.77 68.36 27.52 68.69 27.69 69.02 27.85 69.36 28.1 69.69 27.93 70.02 28.02 70.27 28.35 70.6 28.19 70.93 28.02 71.26 28.02 71.68 28.26 72.02 28.52 72.35 28.52 72.68 28.76 73.01 29.02 73.26 29.35 73.51 29.68 73.85 29.85 74.18 30.01 74.34 30.35 74.59 30.68 74.75 31.01 75.09 31.34 75.42 31.51 75.75 31.68 76.09 31.92 76.42 32.09 76.75 32.42 76.84 32.75 77.34 32.67 77.75 32.84 78.08 32.92 78.41 33.01 78.58 33.34 78.75 33.67 78.67 34 78.67 34.34 78.83 34.67 79 35 79 35.33 79.08 35.67 79.08 36 79.08 36.33 79 36.66 78.91 37 79 37.33 79 37.66 78.83 37.99 78.67 38.33 78.67 38.66 78.58 38.99 78.5 39.32 78.34 39.66 78.08 39.98 77.84 40.31 77.5 40.4 77.17 40.4 77.34 40.73 77.17 41.06 76.92 41.4 76.67 41.73 76.34 41.97 76.01 42.23 75.67 42.23 75.42 42.56 75.09 42.8 74.92 43.14 74.75 43.47 74.59 43.81 74.42 44.14 73.85 44.64 73.59 44.98 73.26 45.14 72.85 45.05 72.52 44.89 72.43 45.22 72.43 45.55 72.35 45.88 72.09 46.22 71.85 46.55 71.76 46.88 71.85 47.21 72.18 47.05 72.18 47.38 72.18 47.71 71.85 47.97 71.68 48.3 71.85 48.63 71.85 48.96 71.85 49.3 71.93 49.63 71.93 49.96 71.85 50.29 71.85 50.63 71.68 50.96 71.6 51.29 71.43 51.62 71.35 51.96 71.1 52.29 71.02 52.62 70.93 52.95 70.85 53.29 70.85 53.62 70.6 53.95 70.35 54.28 70.19 54.62 70.1 54.95 70.1 55.28 70.02 55.61 70.02 55.95 69.93 56.28 69.77 56.61 69.43 56.78 69.1 57.35 68.77 57.61 68.69 57.94 68.69 58.27 68.36 58.35 68.03 58.68 67.69 58.77 67.69 59.1 67.44 59.44 67.2 59.77 67.2 60.1 67.2 60.43 67.2 60.77 66.86 61.1 66.53 61.27 66.2 61.34 65.87 61.6 65.87 61.93 65.53 62.1 65.2 62.01 64.87 62.01 64.54 62.01 64.2 62.01 63.87 61.93 63.54 62.01 63.21 62.1 62.87 61.84 62.54 61.93 62.21 62.1 61.88 62.1 61.54 62.34 61.21 62.6 60.88 62.67 60.55 62.93 60.38 63.26 60.05 63.26 59.55 63.26 59.22 63.43 58.88 63.59 58.55 63.59 58.22 63.67 57.89 63.84 57.55 64.09 57.3 64.42 56.97 64.67 56.63 64.92 56.39 65.25 56.22 65.59 55.89 65.75 55.56 65.66 55.3 66 55.3 66.33 55.23 66.66 55.14 66.99 55.14 67.33 55.23 67.66 55.3 67.99 55.23 68.57 55.23 68.9 54.89 68.9 54.89 69.23 54.89 69.57 55.06 69.9 55.23 70.49 55.06 70.82 54.8 71.15 54.47 71.23 53.81 71.32 53.56 71.65 53.31 71.98 52.98 72.24 52.9 72.57 52.73 72.9 52.56 73.23 52.4 73.57 52.31 73.9 52.14 74.23 52.07 74.56 51.9 74.9 51.57 75.23 51.23 75.47 50.98 75.8 50.65 76.05 50.31 76.3 49.98 76.47 49.82 76.14 50.15 76.05 50.48 75.8 50.74 75.47 50.74 75.14 50.98 74.81 51.31 74.64 51.48 74.31 51.57 73.9 51.57 73.57 51.23 73.57 50.9 73.4 50.9 73.73 50.98 74.06 50.9 74.4 50.57 74.64 50.48 74.97 50.15 75.23 49.9 75.56 49.57 75.88 49.32 76.21 49.32 76.55 49.32 76.88 49.32 77.21 49.32 77.54 49.15 77.88 49.07 78.21 48.91 78.54 48.65 78.87 48.32 79.04 47.99 79.13 47.65 79.04 47.58 78.71 47.74 78.38 48.08 78.04 48.41 77.8 48.74 77.47 48.82 77.13 48.82 76.8 48.49 76.88 48.24 77.21 47.99 77.54 47.91 77.63 47.58 77.3 47.32 76.97 47.08 76.64 46.82 76.3 46.49 76.06 46.16 75.8 45.83 75.64 45.49 75.39 45.16 75.14 44.99 74.81 44.75 74.47 44.42 74.56 44.09 74.4 43.83 74.06 43.5 73.73 43.17 73.48 43 73.14 42.67 73.14 42.33 73.31 42 73.4 41.59 73.48 41.84 73.14 42.09 72.81 42.33 72.48 42.59 72.15 42.83 71.82 43.17 71.48 43.42 71.15 43.75 70.82 44 70.49 44.16 70.15 44.5 69.82 44.83 69.65 45.16 69.58 45.49 69.41 45.66 69.08 45.99 68.91 46.32 68.66 46.66 68.49 46.99 68.49 47.32 68.25 47.58 67.91 47.58 67.58 47.65 67.25 47.65 66.92 47.65 66.58 47.49 66.25 47.49 65.92 47.24 65.59 46.91 65.5 46.58 65.66 46.25 65.85 46.41 65.52 46.41 65.19 46.41 64.86 46.41 64.52 46.41 64.19 46.41 63.77 46.58 63.44 46.66 63.1 46.58 62.77 46.25 62.69 45.83 62.69 45.49 62.61 45.16 62.36 45.08 62.03 44.99 61.7 45.08 61.37 44.92 61.03 44.83 60.7 44.92 60.37 44.75 60.04 44.42 59.87 44.09 59.7 43.75 59.54 43.42 59.54 43.09 59.61 42.76 59.61 42.42 59.61 42.09 59.78 41.76 59.7 41.34 59.54 41.43 59.2 41.5 58.87 41.5 58.54 41.34 58.21 41.5 57.87 41.5 57.54 41.34 57.21 41.34 56.88 41.34 56.54 41.17 56.29 41.59 55.79 41.09 55.38 41.17 55.05 41.34 54.72 41.43 54.38 41.5 54.05 41.67 53.72 41.76 53.39 41.92 53.05 42.09 52.72 41.84 52.39 41.59 52.06 41.26 51.8 40.93 51.47 40.59 51.3 40.51 50.97 40.34 50.64 40.43 50.31 40.59 49.97 40.76 49.64 40.67 49.56 37.68 49.4 37.18 47.65 37.51 47.65 37.68 47.31 37.68 46.98 37.44 46.65 37.6 46.32 37.6 45.98 37.35 45.65 37.01 45.48 36.68 45.41 36.35 45.24 36.02 45.07 35.68 45.07 35.35 45.15 35.02 45.15 34.69 44.91 34.35 44.58 34.02 44.58 33.69 44.49 33.36 44.32 33.02 44.08 32.78 43.74 32.45 43.74 32.12 43.58 31.78 43.49 31.45 43.49 31.12 43.49 30.78 43.32 30.53 42.99 30.2 42.75 29.87 42.58 29.53 42.25 29.2 41.99 29.12 41.66 29.2 41.33 29.2 41 29.12 40.66 28.96 40.33 28.79 40 28.96 39.67 29.12 39.33 29.12 39 28.96 38.67 28.62 38.76 28.29 38.76 27.96 38.84 27.63 38.84 27.29 38.92 26.96 39.17 26.71 39.5 26.37 39.76 26.04 39.83 25.71 40 25.46 40.33 25.13 40.5 24.8 40.59 24.54 40.92 24.3 41.25 23.97 41.25 23.64 41.09 23.3 41 22.97 41.09 22.64 41.16 22.37 41.23 21.95 41.15 21.62 41.32 21.29 41.48 20.95 41.48 20.62 41.4 20.45 41.06 20.54 40.73 20.54 39.49 20.45 39.16 20.45 38.82 20.13 38.74 19.8 38.99 19.47 39.16 19.14 39.4 18.88 39.73 18.55 39.82 18.22 39.9 17.88 39.9 17.64 39.57 17.31 39.23 16.96 38.99 16.63 38.9 16.3 38.99 15.97 38.99 16.05 38.66 15.97 38.24 15.8 37.9 15.47 37.57 15.22 37.24 15.13 36.91 15.06 36.58 14.72 36.33 14.56 36 14.72 35.67 14.8 35.33 14.89 35 14.97 34.67 15.13 34.34 15.56 34.17 15.89 33.84 15.8 33.51 15.72 33.17 15.72 32.84 15.89 32.51 16.13 32.18 16.3 31.84 16.46 31.51 16.72 31.18 16.96 30.85 17.31 30.68 17.64 30.51 17.97 30.42 18.38 30.42 18.71 30.42 19.05 30.09 19.38 29.93 19.8 29.76 20.13 29.76 20.45 29.93 20.79 29.76 21.12 29.76 21.21 29.59 21.62 27.27 21.78 25.19 21.78 25.03 21.87 24.7 21.87 24.36 21.62 24.03 21.37 23.7 21.12 23.37 20.79 23.29 20.79 22.96 20.79 22.62 20.79 22.29 20.79 21.96 20.88 21.63 21.21 21.63 21.54 21.37 21.87 21.63 22.21 21.46 22.12 21.13 21.78 20.78 21.45 20.62 21.12 20.71 21.04 19.62 21.37 19.62 21.78 19.62 22.12 19.62 22.45 19.62 22.78 19.62 23.11 19.62 23.54 19.71 23.87 19.45 23.87 19.12 24.28 19.21 24.61 19.04 24.94 18.96 25.28 18.96 25.44 19.12 25.61 19.45 25.78 19.79 26.11 20.12 26.36 20.45 26.7 20.62 26.77 20.95 27.11 21.04 27.44 21.2 27.77 21.37 28.1 21.37 28.44 21.13 28.6 20.78 28.93 21.04 29.19 20.62 29.36 20.28 29.69 20.04 30.02 19.79 30.35 19.62 30.52 19.29 30.85 18.96 31.18 18.88 31.52 18.79 31.85 18.62 31.76 18.29 31.43 18.21 31.1 18.21 30.76 18.21 30.43 18.05 30.43 17.71 30.52 17.38 30.35 17.05 30.35 16.72 30.26 16.3 30.02 15.96 29.69 15.8 29.36 15.55 29.36 15.22 29.69 15.22 30.02 15.3 30.35 15.22 30.69 15.39 31.02 15.46 31.35 15.63 31.68 15.72 32.02 15.89 32.35 15.96 32.68 15.72 32.92 15.39 33.26 15.39 33.59 15.39 33.92 15.22 34.25 15.22 34.59 15.13 34.92 14.97 35.25 14.72 35.58 14.72 36.01 14.47 36.42 14.3 36.67 13.97 36.52 13.62 36.84 13.47 37.17 13.3 37.5 13.3 37.83 13.47 37.83 14.06 37.5 14.3 37.5 14.63 37.75 14.97 38 15.3 38.08 15.63 38 15.96 37.91 16.3 37.83 16.63 37.83 16.96 37.83 17.29 37.83 17.63 37.83 17.96 38 18.29 38.08 18.62 38.17 18.96 38.33 19.29 38.67 19.45 39 19.54 39.41 19.79 39.75 19.87 40.08 19.87 40.42 19.71 40.75 19.54 41.08 19.39 41.66 19.39 41.99 19.39 42.32 19.04 42.66 18.88 42.99 18.88 43.41 18.79 43.49 18.88 43.82 18.88 44.15 19.12 44.57 19.04 44.91 18.79 44.91 18.46 44.57 18.21 44.65 17.88 44.98 17.96 45.32 18.05 45.65 17.96 45.98 17.79 46.31 17.79 46.48 18.12 46.81 18.12 46.99 18.39 47.32 18.47 47.74 18.63 48.08 18.47 48.41 18.22 48.74 18.3 49.07 18.22 49.41 18.39 49.74 18.47 50.07 18.22 50.9 17.14 51.07 16.81 51.31 16.47 51.57 16.06 51.81 15.73 52.07 15.4 51.98 15.07 52.23 15.13"
         stroke-miterlimit="10"
         stroke-width="0.28222"
         fill="none"
         style="stroke:#9e9e9e" /><polyline
         id="polyline12"
         stroke="#000000"
         points="17.22 3.5 17.55 3.33 17.88 3.16 18.22 3.16 18.55 2.92 18.71 2.59 18.64 2.25 18.3 2 17.97 2.09 17.64 2.25 17.22 2.59 16.96 2.92 16.72 3.25 16.39 3.33 16.05 3.5 15.72 3.66 15.4 4.01 15.06 4.17 14.72 4.17 14.39 4.17 13.97 4.17 13.64 4.25 13.39 4.58 13.14 4.91 12.81 5.25 12.56 4.91 12.23 4.83 11.9 4.99 11.64 5.32 11.48 5.66 11.31 5.99 11.14 6.32 11.07 6.65 11.07 6.99 11.07 7.32 10.73 7.32 10.4 7.41 10.24 7.74 10.07 8.07 9.81 8.41 9.48 8.57 9.15 8.82 9.07 9.15 9.24 9.48 9.24 9.82 9.24 10.16 8.91 10.16 8.91 9.82 8.65 9.48 8.41 9.15 8.07 9.15 8.15 9.48 8.15 9.82 8.07 10.16 7.91 10.49 7.74 10.82 7.41 10.73 7.32 11.06 7.32 11.4 7.58 11.73 7.65 12.06 7.99 12.14 8.07 12.47 7.99 12.89 8.07 13.23 8.24 13.56 8.07 13.89 7.91 14.22 8.07 14.56 8.07 14.89 8.07 15.22 8.07 15.55 8.07 15.89 7.99 16.22 7.99 16.55 8.15 16.88 8.48 16.88 8.48 17.22 8.15 17.46 7.91 17.79 7.65 18.12 7.58 18.46 7.49 18.79 7.41 19.12 7.08 19.21 6.74 19.21 6.41 19.39 6.08 19.29 6 19.62 6 19.95 6.17 20.28 6.25 20.62 5.91 20.78 5.58 20.78 5.49 21.13 5.75 21.7 5.49 21.2 6.08 21.79 6.41 22.12 6.74 22.2 7.08 22.29 7.41 22.37 7.74 22.29 8.07 22.53 8.41 22.87 8.74 23.03 9.07 23.03 9.4 23.2 9.74 23.03 9.81 22.7 10.15 22.87 10.48 23.03 10.81 23.12 11.14 23.37 11.48 23.45 11.98 23.45 12.31 23.53 12.64 23.7 12.97 23.95 13.31 24.12 13.47 24.44 13.73 24.77 14.06 24.86 14.39 25.03 14.72 25.11 14.89 25.44 15.22 25.69 15.56 25.86 15.47 26.19 15.63 26.52 15.47 26.86 15.8 26.93 15.97 27.27 16.39 27.02 16.72 27.1 17.05 26.93 17.38 26.77 17.72 26.6 18.05 26.52 18.38 26.6 18.71 26.93 19.05 26.77 19.3 26.44 19.63 26.44 19.97 26.52 20.29 26.52 20.62 26.69 20.71 27.02 21.12 27.1 19.55 29.09 20.21 28.76 20.54 28.6 20.71 28.76 20.71 29.09 21.21 29.59 21.62 27.27 21.78 25.19 21.78 25.03 21.87 24.7 21.87 24.36 21.62 24.03 21.37 23.7 21.12 23.37 20.79 23.29 20.79 22.96 20.79 22.62 20.79 22.29 20.79 21.96 20.88 21.63 21.21 21.63 21.54 21.37 21.87 21.63 22.21 21.46 22.12 21.13 21.78 20.78 21.45 20.62 21.12 20.71 21.04 19.62 21.37 19.62 21.78 19.62 22.12 19.62 22.45 19.62 22.78 19.62 23.11 19.62 23.54 19.71 23.87 19.45 23.87 19.12 24.28 19.21 24.61 19.04 24.94 18.96 25.28 18.96 25.28 18.62 25.11 18.29 24.87 17.96 24.61 17.63 24.87 17.29 25.11 16.96 25.2 16.63 25.11 16.3 24.87 15.96 24.7 15.63 24.53 15.3 24.44 14.97 24.44 14.63 24.44 14.3 24.44 13.97 24.44 13.64 24.61 13.3 24.94 12.97 24.87 12.64 24.94 12.31 24.87 11.97 24.53 11.9 24.2 12.06 23.87 12.14 23.37 12.14 23.04 12.06 22.7 11.97 22.37 12.06 22.04 12.23 21.71 12.23 21.45 11.9 21.12 11.64 20.79 11.31 20.45 11.15 20.13 11.06 19.8 10.9 19.47 10.82 19.14 10.73 18.71 10.73 18.38 10.73 18.05 10.65 17.72 10.73 17.38 10.9 17.05 10.9 16.89 10.57 16.55 10.32 16.46 9.99 16.55 9.66 16.55 9.31 16.46 8.98 16.3 8.65 16.05 8.32 15.97 7.98 15.8 7.65 15.8 7.32 15.47 7.32 15.22 7.65 14.89 7.65 15.13 7.24 15.4 6.91 15.47 6.58 15.4 6.16 15.47 5.82 15.63 5.49 15.8 5.16 15.97 4.83 16.3 4.5 16.46 4.17 16.8 4.01 17.14 3.83 17.22 3.5"
         stroke-miterlimit="10"
         stroke-width="0.28222"
         fill="none"
         style="stroke:#9e9e9e" /><polyline
         id="polyline14"
         stroke="#000000"
         points="25.27 18.94 25.27 18.61 25.1 18.28 24.86 17.95 24.6 17.61 24.86 17.28 25.1 16.95 25.19 16.62 25.1 16.28 24.86 15.95 24.69 15.62 24.52 15.29 24.43 14.95 24.43 14.62 24.43 14.29 24.43 13.96 24.43 13.62 24.6 13.29 24.93 12.96 24.86 12.63 24.93 12.29 24.86 11.96 24.52 11.88 24.19 12.05 23.86 12.13 23.36 12.13 23.03 12.05 22.69 11.96 22.36 12.05 22.03 12.22 21.7 12.22 21.44 11.88 21.11 11.63 20.78 11.3 20.44 11.14 20.12 11.05 19.79 10.89 19.46 10.81 19.12 10.72 18.7 10.72 18.37 10.72 18.04 10.64 17.71 10.72 17.37 10.89 17.04 10.89 16.87 10.56 16.54 10.31 16.45 9.98 16.54 9.65 16.54 9.3 16.45 8.97 16.29 8.64 16.04 8.31 15.95 7.97 15.79 7.64 15.79 7.31 15.46 7.31 15.21 7.64 14.88 7.64 15.12 7.23 15.4 6.9 15.46 6.57 15.4 6.14 15.46 5.81 15.62 5.48 15.79 5.15 15.95 4.81 16.29 4.49 16.45 4.16 16.79 3.99 17.13 3.82 17.21 3.48 17.54 3.32 17.87 3.15 18.2 3.15 18.14 3.33 17.81 3.5 17.55 3.83 17.31 4.17 17.55 4.5 17.72 4.83 17.88 5.16 17.88 5.49 17.55 5.82 17.31 6.16 17.14 6.49 17.38 6.82 17.55 7.15 17.72 7.49 18.05 7.65 18.38 7.49 18.71 7.32 18.88 6.99 18.88 6.65 18.8 6.32 18.64 5.99 18.3 5.82 18.3 5.49 18.22 5.16 18.22 4.83 18.3 4.5 18.64 4.42 18.97 4.08 19.3 4.01 19.63 3.92 19.97 3.83 20.29 3.83 20.54 3.5 20.79 3.16 20.45 3 20.13 2.66 20.45 2.33 20.79 2.42 20.88 2.75 21.12 3.09 21.29 3.42 21.62 3.58 21.95 3.5 22.28 3.5 22.62 3.66 22.95 3.83 23.28 4.08 23.54 4.42 23.87 4.75 24.2 4.83 24.53 4.91 24.87 4.91 25.2 4.91 25.53 4.91 25.86 4.91 26.2 4.75 26.53 4.83 26.86 4.83 27.19 4.83 27.53 5.08 27.86 5.16 28.19 5.25 28.52 5.32 28.86 5.32 29.19 5.41 29.52 5.41 29.85 5.32 30.19 5.32 30.52 4.99 30.85 4.99 31.18 4.99 30.85 4.75 30.52 4.67 30.85 4.5 31.18 4.5 31.52 4.5 31.85 4.58 32.18 4.5 32.51 4.42 33.18 4.34 33.51 4.34 33.84 4.34 34.18 4.5 34.51 4.42 34.25 4.75 33.92 4.91 33.59 4.75 33.26 4.67 32.92 4.67 33.09 4.99 33.35 5.32 33.68 5.58 34.01 5.58 34.34 5.75 34.68 5.82 35.01 5.91 35.34 5.82 35.67 5.99 36.01 6.16 36.34 6.24 36.52 6.58 36.58 6.91 36.58 7.24 36.25 7.49 36.17 7.82 36.52 7.82 36.84 7.74 37.17 7.74 37.5 7.65 37.83 7.74 38 8.07 38 8.41 37.67 8.74 37.34 8.9 37 8.98 36.67 9.31 36.67 9.66 36.67 9.99 37 10.23 37.17 10.57 36.84 10.82 36.52 10.82 36.17 10.82 35.84 10.82 35.58 11.15 35.58 11.47 35.51 11.81 35.42 12.14 35.42 12.47 35.75 12.73 36.08 12.97 36.34 13.3 36.52 13.64 36.67 13.97 36.42 14.3 36.01 14.47 35.58 14.72 35.25 14.72 34.92 14.97 34.59 15.13 34.25 15.22 33.92 15.22 33.59 15.39 33.26 15.39 32.92 15.39 32.68 15.72 32.35 15.96 32.02 15.89 31.68 15.72 31.35 15.63 31.02 15.46 30.69 15.39 30.35 15.22 30.02 15.3 29.69 15.22 29.36 15.22 29.36 15.55 29.69 15.8 30.02 15.96 30.26 16.3 30.35 16.72 30.35 17.05 30.52 17.38 30.43 17.71 30.43 18.05 30.76 18.21 31.1 18.21 31.43 18.21 31.76 18.29 31.85 18.62 31.52 18.79 31.18 18.88 30.85 18.96 30.52 19.29 30.35 19.62 30.02 19.79 29.69 20.04 29.36 20.28 29.19 20.62 28.93 21.04 28.6 20.78 28.44 21.13 28.1 21.37 27.77 21.37 27.44 21.2 27.11 21.04 26.77 20.95 26.7 20.62 26.36 20.45 26.11 20.12 25.78 19.79 25.61 19.45 25.44 19.12 25.27 18.94"
         stroke-miterlimit="10"
         stroke-width="0.28222"
         fill="none"
         style="stroke:#9e9e9e" /><polyline
         id="polyline16"
         stroke="#000000"
         points="5.49 21.2 5.75 21.7 5.41 21.87 5.08 21.87 4.66 21.96 4.33 22.12 4 22.46 3.92 22.79 3.75 23.12 3.92 23.45 3.83 23.79 3.59 24.12 3.33 24.44 3.25 24.77 3.25 25.11 3 25.44 2.67 25.77 2.59 26.1 2.75 26.44 2.67 26.77 2.67 27.1 2.75 27.43 2.59 27.77 2.59 28.1 2.92 28.26 3.25 28.43 3.66 28.26 4.08 28.19 4.42 28.1 4.75 28.02 4.83 28.35 4.66 28.68 4.49 29.02 4.16 29.18 3.83 29.43 3.59 29.76 3.25 30.09 3.09 30.42 2.75 30.68 2.42 31.01 2.17 31.34 2.09 31.68 2 32.01 2.09 32.34 2.42 32.51 2.83 32.51 3.16 32.42 3.33 32.09 3.66 31.75 4 31.59 4.33 31.51 4.66 31.75 4.99 31.75 5.25 32.09 5.58 32.18 5.91 32.25 6.08 31.92 6.33 31.59 6.5 31.26 6.67 30.92 6.74 30.51 6.83 30.18 7 29.85 7.08 29.52 7.41 29.76 7.58 29.43 7.58 29.09 7.82 28.76 8.15 28.6 8.57 28.43 8.98 28.26 9.32 28.1 9.74 27.93 10.15 27.69 10.48 27.43 10.81 27.1 11.07 26.77 11.31 26.44 11.4 26.1 11.57 25.77 11.64 25.44 11.73 25.11 11.73 24.77 12.06 24.7 11.81 24.2 11.48 23.95 11.81 23.79 11.96 23.44 11.48 23.45 11.14 23.37 10.81 23.12 10.48 23.03 10.15 22.87 9.81 22.7 9.74 23.03 9.4 23.2 9.07 23.03 8.74 23.03 8.41 22.87 8.07 22.53 7.74 22.29 7.41 22.37 7.08 22.29 6.74 22.2 6.41 22.12 6.08 21.79 5.49 21.2"
         stroke-miterlimit="10"
         stroke-width="0.28222"
         fill="none"
         style="stroke:#9e9e9e" /><polyline
         id="polyline18"
         stroke="#000000"
         points="21.2 29.58 20.7 29.08 20.7 28.75 20.53 28.59 20.2 28.75 19.53 29.08 21.11 27.09 20.7 27.01 20.61 26.68 20.28 26.51 19.96 26.51 19.62 26.42 19.29 26.42 19.04 26.76 18.7 26.92 18.37 26.59 18.04 26.51 17.71 26.59 17.37 26.76 17.04 26.92 16.71 27.09 16.38 27.01 15.95 27.26 15.79 26.92 15.46 26.85 15.62 26.51 15.46 26.18 15.54 25.85 15.21 25.68 14.88 25.43 14.71 25.09 14.38 25.02 14.05 24.85 13.72 24.76 13.46 24.43 13.29 24.11 12.96 23.94 12.63 23.69 12.3 23.52 11.96 23.44 11.8 23.78 11.47 23.94 11.8 24.19 12.05 24.68 11.72 24.76 11.72 25.09 11.63 25.43 11.55 25.76 11.39 26.09 11.3 26.42 11.06 26.76 10.8 27.09 10.47 27.42 10.14 27.68 9.73 27.92 9.3 28.09 8.97 28.25 8.56 28.42 8.14 28.59 7.81 28.75 7.56 29.08 7.56 29.42 7.4 29.75 7.07 29.5 6.99 29.84 6.82 30.17 6.73 30.5 6.66 30.91 6.49 31.24 6.32 31.58 6.07 31.91 5.9 32.24 5.57 32.16 5.24 32.08 4.98 31.74 4.65 31.74 4.32 31.5 3.98 31.58 3.65 31.74 3.32 32.08 3.15 32.41 2.82 32.5 2.41 32.5 2.33 32.59 2.33 32.92 2.5 33.25 2.83 33.25 3 33.58 2.75 34 2.42 34.17 2.5 34.5 2.83 34.67 3.16 34.75 3.66 34.84 4 35 4.33 35.17 4.66 35.5 4.92 35.83 5.08 36.17 5.25 36.5 5.33 36.83 5.67 37.07 6 37.33 6.58 37.74 6.67 38.07 6.74 38.4 6.83 38.74 7 39.07 7.17 39.4 7.41 39.73 7.58 40.07 7.82 40.4 7.99 40.82 8.07 41.15 8.32 41.48 8.48 41.82 8.57 42.15 8.82 42.48 9.15 42.73 9.48 43.06 9.65 43.39 9.74 43.73 9.98 44.07 10.24 44.4 10.57 44.73 10.73 45.06 10.9 45.47 11.14 45.81 11.48 45.81 11.64 46.14 11.48 46.47 11.31 46.8 11.31 47.14 11.57 47.47 11.64 47.8 11.98 48.06 12.31 48.22 12.64 48.39 12.97 48.72 13.31 48.89 13.56 49.22 13.8 49.55 14.14 49.72 14.47 49.8 14.8 49.88 15.13 50.05 15.47 50.21 15.8 50.37 16.13 50.54 16.46 50.7 16.8 50.7 17.14 50.96 17.47 51.13 17.81 51.2 18.14 51.2 18.47 51.37 18.8 51.54 19.14 51.7 19.47 51.96 19.8 52.29 19.97 52.62 20.29 52.87 20.62 53.03 20.88 53.36 21.21 53.62 21.54 53.79 21.87 53.7 22.21 53.62 22.54 53.45 22.7 53.12 22.62 52.79 22.87 52.46 22.78 52.12 22.54 51.79 22.45 51.46 22.62 51.13 22.95 50.96 23.28 50.79 23.61 50.63 23.54 50.29 23.45 49.96 23.11 50.05 22.78 49.8 22.45 49.72 22.12 49.55 21.78 49.39 22.12 49.3 22.45 49.22 22.21 48.89 22.28 48.47 22.62 48.63 22.78 48.89 22.95 48.55 23.11 48.3 23.04 47.97 23.2 46.97 23.61 46.56 23.45 45.56 23.45 44.98 23.87 43.56 22.37 41.23 21.95 41.15 21.62 41.32 21.29 41.48 20.95 41.48 20.62 41.4 20.45 41.06 20.54 40.73 20.54 39.49 20.45 39.16 20.45 38.82 20.13 38.74 19.8 38.99 19.47 39.16 19.14 39.4 18.88 39.73 18.55 39.82 18.22 39.9 17.88 39.9 17.64 39.57 17.31 39.23 16.96 38.99 16.63 38.9 16.3 38.99 15.97 38.99 16.05 38.66 15.97 38.24 15.8 37.9 15.47 37.57 15.22 37.24 15.13 36.91 15.06 36.58 14.72 36.33 14.56 36 14.72 35.67 14.8 35.33 14.89 35 14.97 34.67 15.13 34.34 15.56 34.17 15.89 33.84 15.8 33.51 15.72 33.17 15.72 32.84 15.89 32.51 16.13 32.18 16.3 31.84 16.46 31.51 16.72 31.18 16.96 30.85 17.31 30.68 17.64 30.51 17.97 30.42 18.38 30.42 18.71 30.42 19.05 30.09 19.38 29.93 19.8 29.76 20.13 29.76 20.45 29.93 20.79 29.76 21.12 29.76 21.2 29.58"
         stroke-miterlimit="10"
         stroke-width="0.28222"
         fill="none"
         style="stroke:#9e9e9e" /><polyline
         id="polyline20"
         stroke="#000000"
         points="38.08 7.91 38.41 8.15 38.74 8.15 39.08 8.15 39.41 8.41 39.41 8.74 39.57 9.07 39.92 9.4 40.25 9.74 40.33 10.07 40.33 10.4 40.25 10.73 40.16 11.06 40.16 11.4 40.42 11.06 40.58 10.73 40.92 10.73 41.25 10.9 41.58 11.06 41.82 11.4 42.08 11.73 42.41 11.9 42.49 12.23 42.58 12.56 42.49 12.89 42.49 13.23 42.41 13.56 42.08 13.8 41.58 13.89 41.49 14.22 41.41 14.56 41.25 14.89 41.25 15.22 41.33 15.55 41.41 15.89 41.66 16.22 41.82 16.55 42.16 16.79 42.49 17.13 42.58 17.46 42.74 17.79 42.99 18.12 43.15 18.46 43.41 18.79 42.99 18.88 42.66 18.88 42.32 19.04 41.99 19.39 41.66 19.39 41.08 19.39 40.75 19.54 40.42 19.71 40.08 19.87 39.75 19.87 39.41 19.79 39 19.54 38.67 19.45 38.33 19.29 38.17 18.96 38.08 18.62 38 18.29 37.83 17.96 37.83 17.63 37.83 17.29 37.83 16.96 37.83 16.63 37.91 16.3 38 15.96 38.08 15.63 38 15.3 37.75 14.97 37.5 14.63 37.5 14.3 37.83 14.06 37.83 13.47 37.5 13.3 37.17 13.3 36.84 13.47 36.52 13.62 36.33 13.29 36.07 12.96 35.74 12.72 35.41 12.46 35.41 12.13 35.5 11.8 35.57 11.46 35.57 11.14 35.83 10.81 36.16 10.81 36.52 10.81 36.83 10.81 37.16 10.56 36.99 10.22 36.66 9.98 36.66 9.65 36.66 9.3 36.99 8.97 37.32 8.89 37.66 8.73 37.99 8.39 37.99 8.06 38.08 7.91"
         stroke-miterlimit="10"
         stroke-width="0.28222"
         fill="none"
         style="stroke:#9e9e9e" /><polyline
         id="polyline22"
         stroke="#000000"
         points="42.57 12.55 42.48 12.88 42.48 13.21 42.4 13.55 42.07 13.79 41.57 13.88 41.48 14.21 41.4 14.54 41.24 14.88 41.24 15.21 41.31 15.54 41.4 15.87 41.65 16.21 41.81 16.54 42.15 16.78 42.48 17.12 42.57 17.45 42.73 17.78 42.98 18.11 43.14 18.45 43.4 18.78 43.49 18.88 43.82 18.88 44.15 19.12 44.57 19.04 44.91 18.79 44.91 18.46 44.57 18.21 44.65 17.88 44.98 17.96 45.32 18.05 45.65 17.96 45.98 17.79 46.31 17.79 46.48 18.12 46.81 18.12 47.14 17.88 47.23 17.55 47.4 17.22 47.57 16.88 47.64 16.55 47.81 16.22 47.81 15.89 47.48 15.55 47.31 15.22 47.31 14.89 47.23 14.56 47.07 14.22 47.07 13.89 47.14 13.56 47.48 13.39 47.73 13.06 47.9 12.73 48.06 12.39 47.73 12.31 47.4 12.31 47.07 12.23 46.73 12.14 46.4 12.06 46.07 11.9 45.74 12.06 45.4 12.14 45.07 12.14 44.74 12.23 44.41 12.23 44.07 12.06 43.74 12.06 43.41 12.14 43.08 12.06 42.74 12.14 42.66 12.47 42.57 12.55"
         stroke-miterlimit="10"
         stroke-width="0.28222"
         fill="none"
         style="stroke:#9e9e9e" /><polyline
         id="polyline24"
         stroke="#000000"
         points="46.99 18.39 47.32 18.47 47.74 18.63 48.08 18.47 48.41 18.22 48.74 18.3 49.07 18.22 49.41 18.39 49.74 18.47 50.07 18.22 50.9 17.14 51.07 16.81 51.31 16.47 51.57 16.06 51.81 15.73 52.07 15.4 51.98 15.07 51.9 14.73 51.57 14.73 51.48 15.07 51.4 14.73 51.15 14.4 50.81 14.15 50.48 13.9 50.24 13.57 49.9 13.24 49.57 12.98 49.24 12.98 48.91 12.82 48.74 12.48 48.24 12.65 47.9 12.73 47.73 13.06 47.48 13.39 47.14 13.56 47.07 13.89 47.07 14.22 47.23 14.56 47.31 14.89 47.31 15.22 47.48 15.55 47.81 15.89 47.81 16.22 47.64 16.55 47.57 16.88 47.4 17.22 47.23 17.55 47.14 17.88 46.81 18.12 46.99 18.39"
         stroke-miterlimit="10"
         stroke-width="0.28222"
         fill="none"
         style="stroke:#9e9e9e" /><polyline
         id="polyline26"
         stroke="#000000"
         points="23.05 52.8 23.55 53.39 23.64 53.8 23.71 54.13 23.88 54.46 24.21 54.79 24.54 55.05 24.88 55.29 24.71 55.62 24.54 56.05 24.63 56.38 24.47 56.71 24.54 57.04 24.63 57.38 24.71 57.71 24.97 58.04 25.21 58.37 25.3 58.71 25.3 59.04 25.38 59.37 25.54 59.7 25.71 60.04 25.8 60.37 25.87 60.7 25.54 60.94 25.8 61.28 26.13 61.37 26.46 61.53 26.79 61.44 27.04 61.03 27.13 60.7 27.46 60.61 27.79 60.37 27.87 60.04 28.2 59.95 28.37 59.61 28.7 59.61 29.03 59.78 29.37 59.95 29.7 60.04 30.03 59.95 30.36 59.87 30.7 59.87 31.03 60.11 31.03 60.45 31.2 60.78 31.53 60.87 31.53 60.53 31.62 60.2 31.78 59.87 31.95 59.54 32.28 59.54 32.69 59.54 33.11 59.54 33.45 59.54 33.78 59.78 33.86 59.61 34.28 57.87 34.28 56.71 35.11 55.21 36.44 55.05 37.68 54.72 39.25 54.72 40.76 55.38 41.17 56.29 41.59 55.79 41.09 55.38 41.17 55.05 41.34 54.72 41.43 54.38 41.5 54.05 41.67 53.72 41.76 53.39 41.92 53.05 42.09 52.72 41.84 52.39 41.59 52.06 41.26 51.8 40.93 51.47 40.59 51.3 40.51 50.97 40.34 50.64 40.43 50.31 40.59 49.97 40.76 49.64 40.67 49.56 37.68 49.4 37.18 47.65 37.51 47.65 37.68 47.31 37.68 46.98 37.44 46.65 37.6 46.32 37.6 45.98 37.35 45.65 37.01 45.48 36.68 45.41 36.35 45.24 36.02 45.07 35.68 45.07 35.35 45.15 35.02 45.15 34.69 44.91 34.35 44.58 34.02 44.58 33.69 44.49 33.36 44.32 33.02 44.08 32.78 43.74 32.45 43.74 32.12 43.58 31.78 43.49 31.45 43.49 31.12 43.49 30.78 43.32 30.53 42.99 30.2 42.75 29.87 42.58 29.53 42.25 29.2 41.99 29.12 41.66 29.2 41.33 29.2 41 29.12 40.66 28.96 40.33 28.79 40 28.96 39.67 29.12 39.33 29.12 39 28.96 38.67 28.62 38.76 28.29 38.76 27.96 38.84 27.63 38.84 27.29 38.92 26.96 39.17 26.71 39.5 26.37 39.76 26.04 39.83 25.71 40 25.46 40.33 25.13 40.5 24.8 40.59 24.54 40.92 24.3 41.25 23.97 41.25 23.64 41.09 23.3 41 22.97 41.09 22.64 41.16 22.37 41.23 23.87 43.56 23.45 44.98 23.45 45.56 23.61 46.56 23.2 46.97 23.04 47.97 23.11 48.3 22.95 48.55 22.78 48.89 22.62 48.63 22.28 48.47 22.21 48.89 22.45 49.22 22.12 49.3 21.78 49.39 22.12 49.55 22.45 49.72 22.78 49.8 23.11 50.05 23.45 49.96 23.54 50.29 23.61 50.63 23.28 50.79 22.95 50.96 22.62 51.13 22.45 51.46 22.54 51.79 22.78 52.12 22.87 52.46 23.05 52.8"
         stroke-miterlimit="10"
         stroke-width="0.28222"
         fill="none"
         style="stroke:#9e9e9e" /><polyline
         id="polyline28"
         stroke="#000000"
         points="41.17 56.29 40.76 55.38 39.25 54.72 37.68 54.72 36.44 55.05 35.11 55.21 34.28 56.71 34.28 57.87 33.86 59.61 33.78 59.78 34.02 59.95 34.35 60.2 34.61 60.53 34.78 60.87 35.11 61.11 35.44 61.44 35.77 61.78 36.11 61.94 36.44 62.2 36.77 62.2 37.1 62.36 37.44 62.69 37.76 62.69 38.01 63.03 38.34 63.1 38.68 63.36 39.01 63.69 39.34 63.86 39.67 64.02 40.01 64.19 40.34 64.19 40.67 64.27 41 64.36 41.34 64.6 41.67 64.86 41.67 65.19 41.43 65.52 41.26 65.85 40.93 66.19 40.84 66.52 40.67 66.93 40.43 67.26 40.34 67.59 40.26 67.93 40.26 68.26 40.59 68.18 40.93 68.18 41.26 68.26 41.59 68.42 41.92 68.51 42.26 68.51 42.59 68.59 42.92 68.59 43.25 68.59 43.59 68.68 43.92 68.42 44.25 68.51 44.58 68.51 44.92 68.26 45.08 67.93 45.33 67.59 45.66 67.35 45.99 67.18 46.25 66.85 46.25 66.52 46.16 66.19 46.25 65.85 46.41 65.52 46.41 65.19 46.41 64.86 46.41 64.52 46.41 64.19 46.41 63.77 46.58 63.44 46.66 63.1 46.58 62.77 46.25 62.69 45.83 62.69 45.49 62.61 45.16 62.36 45.08 62.03 44.99 61.7 45.08 61.37 44.92 61.03 44.83 60.7 44.92 60.37 44.75 60.04 44.42 59.87 44.09 59.7 43.75 59.54 43.42 59.54 43.09 59.61 42.76 59.61 42.42 59.61 42.09 59.78 41.76 59.7 41.34 59.54 41.43 59.2 41.5 58.87 41.5 58.54 41.34 58.21 41.5 57.87 41.5 57.54 41.34 57.21 41.34 56.88 41.34 56.54 41.17 56.29"
         stroke-miterlimit="10"
         stroke-width="0.28222"
         fill="none"
         style="stroke:#9e9e9e" /><polyline
         id="polyline30"
         stroke="#000000"
         points="22.87 52.46 23.05 52.8 23.55 53.39 23.64 53.8 23.71 54.13 23.88 54.46 24.21 54.79 24.54 55.05 24.88 55.29 24.71 55.62 24.54 56.05 24.63 56.38 24.47 56.71 24.54 57.04 24.63 57.38 24.71 57.71 24.97 58.04 25.21 58.37 25.3 58.71 25.3 59.04 25.38 59.37 25.54 59.7 25.71 60.04 25.8 60.37 25.87 60.7 25.54 60.94 25.8 61.28 26.13 61.37 26.46 61.53 26.79 61.44 27.04 61.03 27.13 61.2 27.13 61.53 27.04 63.1 25.46 64.1 25.21 64.6 25.3 64.93 25.3 65.27 25.04 65.6 25.04 65.93 25.13 66.26 25.3 66.6 25.38 66.93 25.21 67.26 25.21 67.59 25.46 67.93 25.54 68.26 25.21 68.51 25.21 68.85 24.88 69.18 24.63 69.51 24.47 69.84 24.38 70.18 24.21 70.51 24.05 70.84 23.97 71.17 23.88 71.58 23.8 71.91 23.64 72.25 23.47 72.58 23.55 72.91 23.64 73.24 23.8 73.58 23.88 73.91 23.71 74.24 23.55 74.57 23.55 74.91 23.64 75.24 23.38 75.57 23.05 75.66 22.97 75.99 23.21 76.33 23.55 76.66 23.88 76.99 23.64 77.32 23.8 77.66 23.97 77.99 24.13 78.32 24.05 78.65 24.13 78.82 24.3 79.15 24.54 79.48 24.63 79.82 24.63 80.15 24.71 80.48 24.71 80.81 24.63 80.98 24.3 81.15 24.3 81.48 24.13 81.81 24.05 82.14 23.71 82.31 23.64 82.64 23.71 82.97 23.88 83.31 24.05 83.64 23.88 83.97 23.8 84.3 23.55 84.64 23.3 84.97 23.3 85.3 23.38 85.63 23.47 85.97 23.3 86.3 23.3 86.63 23.47 86.96 23.64 87.3 23.8 87.63 23.88 87.96 23.97 88.29 23.64 88.63 23.3 88.87 23.3 89.2 23.3 89.53 23.21 89.87 23.14 90.2 23.05 90.53 23.05 90.86 23.05 91.2 23.05 91.53 23.05 91.86 23.05 92.19 23.05 92.53 23.14 92.86 23.3 93.19 23.47 93.52 23.64 93.86 23.64 94.19 23.55 94.52 23.3 94.78 23.3 95.11 23.38 95.44 23.71 95.69 23.88 96.02 23.88 96.35 23.88 96.68 23.97 97.02 24.05 97.35 24.05 97.68 24.38 97.85 24.71 97.68 25.04 97.85 25.21 98.18 24.88 98.43 24.47 98.51 24.13 98.51 23.8 98.6 24.13 98.84 24.47 99.01 24.8 99.18 24.88 99.51 24.54 99.84 24.47 100.17 24.47 100.51 24.38 100.93 24.54 100.99 24.54 101.33 24.8 101.66 24.71 101.99 24.54 102.32 24.47 102.66 24.47 102.99 24.3 103.32 24.21 103.65 24.21 103.99 24.21 104.32 24.47 104.65 24.47 104.98 24.3 105.32 24.05 105.65 23.88 105.98 23.8 106.31 23.71 106.65 23.71 106.98 23.71 107.31 23.64 107.64 23.88 107.97 24.13 108.31 24.47 108.38 24.8 108.22 25.13 107.97 25.3 108.31 25.3 108.64 25.21 108.97 25.3 109.3 25.46 109.64 25.54 109.97 25.63 110.3 25.96 110.47 26.3 110.47 26.63 110.38 26.96 110.3 27.29 110.3 27.63 110.3 27.96 110.3 28.37 110.3 28.53 110.63 28.29 110.97 27.96 110.97 27.63 111.04 27.29 111.3 27.13 111.63 27.2 111.96 27.2 112.3 27.2 112.63 27.2 112.96 27.13 113.29 26.79 113.29 26.46 113.13 26.13 112.96 25.87 112.63 26.21 112.37 26.54 112.46 26.87 111.96 26.96 111.63 26.87 111.3 26.54 111.38 26.46 111.71 26.3 112.04 25.87 112.04 25.63 112.37 25.63 112.8 25.3 112.63 25.21 112.3 25.38 111.96 25.38 111.63 25.54 111.3 25.21 111.13 25.13 111.47 25.21 111.8 24.97 112.13 24.63 112.13 24.71 111.8 24.71 111.47 24.38 111.47 24.3 111.13 24.63 110.88 24.54 110.55 24.13 110.38 23.97 110.05 23.97 109.71 23.71 109.38 23.55 108.97 23.64 108.64 23.3 108.31 23.21 107.97 22.88 107.72 22.8 107.39 22.88 107.06 22.88 106.72 22.8 106.39 22.72 106.06 22.64 105.73 22.47 105.32 22.47 104.98 22.14 104.73 22.22 104.4 22.31 104.06 21.97 103.65 21.97 103.32 21.88 102.99 22.22 102.82 22.22 102.49 22.05 102.16 21.72 102.07 21.55 102.4 21.22 102.32 20.89 101.99 20.72 102.32 20.81 102.66 20.48 102.73 20.31 102.4 20.31 102.07 20.55 101.74 20.72 101.4 20.72 101.07 20.72 100.74 21.05 100.66 21.39 100.66 21.72 100.83 21.72 101.16 21.64 101.49 21.97 101.49 22.31 101.66 22.38 101.33 22.38 100.99 22.22 100.66 22.47 100.33 22.31 100 22.38 99.66 22.47 99.33 22.72 99 23.05 98.83 23.14 98.5 23.14 98.17 22.8 97.91 22.47 97.84 22.38 97.5 22.38 97.17 22.38 96.75 22.22 96.42 22.31 96.08 22.47 95.75 22.38 95.42 22.55 95.09 22.47 94.75 22.22 94.42 22.55 94.59 22.72 94.26 22.38 94.09 22.38 93.76 22.47 93.42 22.14 93.18 21.81 93.35 21.72 93.68 21.39 93.76 20.98 93.76 20.81 93.42 20.48 93.18 20.48 92.85 20.48 92.52 20.55 92.18 20.55 91.85 20.48 91.52 20.48 91.19 20.48 90.76 20.55 90.43 20.72 90.1 20.72 89.77 20.81 89.44 20.72 89.1 20.55 88.77 20.39 88.44 20.31 88.11 20.31 87.77 20.31 87.44 20.31 87.11 20.22 86.78 20.06 86.44 20.14 85.94 20.48 85.61 20.64 85.28 20.81 84.95 20.89 84.61 20.89 84.28 20.81 83.95 20.81 83.62 21.05 83.28 21.14 82.95 21.22 82.62 21.39 82.21 21.55 81.88 21.55 81.54 21.55 81.21 21.64 80.88 21.64 80.55 21.64 80.22 21.81 79.88 21.97 79.55 21.81 79.22 21.72 78.89 21.81 78.55 22.05 78.22 21.88 77.89 21.81 77.56 21.88 77.22 21.88 76.89 21.81 76.56 21.47 76.23 21.39 75.56 21.31 75.23 21.22 74.9 21.22 74.47 21.31 74.14 21.47 73.81 21.55 73.48 21.31 73.14 21.47 72.81 21.47 72.48 21.39 72.15 21.31 71.82 21.31 71.48 21.39 71.15 21.47 70.82 21.47 70.49 21.55 70.15 21.55 69.82 21.55 69.49 21.72 69.16 21.81 68.82 21.81 68.41 21.97 67.99 22.14 67.66 22.14 67.33 21.88 66.99 21.72 66.58 21.81 66.16 21.97 65.83 22.05 65.5 21.97 65.17 21.97 64.83 21.97 64.5 22.05 64.17 22.05 63.84 22.05 63.43 22.14 63.09 22.14 62.76 22.05 62.43 21.81 62.1 21.81 61.76 22.14 61.43 22.14 61.1 22.22 60.77 22.31 60.43 22.31 60.1 22.31 59.77 22.38 59.44 22.31 59.02 22.22 58.68 21.97 58.35 21.97 58.02 21.97 57.61 21.97 57.19 21.97 56.85 21.97 56.52 22.05 56.11 21.97 55.69 21.88 55.36 21.64 55.03 21.55 54.69 21.47 54.28 21.55 53.95 21.54 53.79 21.87 53.7 22.21 53.62 22.54 53.45 22.7 53.12 22.62 52.79 22.87 52.46"
         stroke-miterlimit="10"
         stroke-width="0.28222"
         fill="none"
         style="stroke:#9e9e9e" /><polyline
         id="polyline32"
         stroke="#000000"
         points="20.72 94.01 20.72 94.34 20.72 94.68 20.72 95.01 20.72 95.34 20.55 95.67 20.55 96.01 20.55 96.34 20.64 96.67 20.98 96.58 21.31 96.58 21.47 96.25 21.47 95.92 21.47 95.59 21.14 95.34 21.22 95.01 21.47 94.68 21.39 94.34 21.31 94.01 20.98 94.09 20.72 94.01"
         stroke-miterlimit="10"
         stroke-width="0.28222"
         fill="none"
         style="stroke:#9e9e9e" /><polyline
         id="polyline34"
         stroke="#000000"
         points="29.95 114.13 29.62 114.2 29.29 114.46 29.03 114.13 28.7 114.13 28.37 114.04 28.04 113.87 27.7 114.13 27.29 114.29 26.96 114.2 26.63 114.46 26.96 114.54 27.29 114.37 27.37 114.7 27.7 114.7 28.04 114.96 28.12 114.62 28.46 114.54 28.79 114.54 29.12 114.7 29.45 114.87 29.94 114.62 29.95 114.13"
         stroke-miterlimit="10"
         stroke-width="0.28222"
         fill="none"
         style="stroke:#9e9e9e" /><polyline
         id="polyline36"
         stroke="#000000"
         points="25.3 112.96 25.04 113.29 25.13 113.63 25.46 113.63 25.8 113.7 26.04 113.37 25.71 113.04 25.3 112.96"
         stroke-miterlimit="10"
         stroke-width="0.28222"
         fill="none"
         style="stroke:#9e9e9e" /><polyline
         id="polyline38"
         stroke="#000000"
         points="28.87 110.88 28.62 111.21 28.62 111.54 28.2 111.54 27.87 111.38 27.7 111.71 27.7 112.04 27.79 112.37 28.12 112.54 28.46 112.3 28.62 112.63 28.29 112.8 28.2 113.13 28.29 113.46 28.62 113.7 28.96 113.79 29.29 113.79 29.62 113.96 29.95 113.96 29.95 113.54 29.87 113.04 29.79 112.46 29.7 112.13 29.7 111.63 29.7 111.3 29.7 110.97 29.37 111.21 29.03 111.13 28.87 110.88"
         stroke-miterlimit="10"
         stroke-width="0.28222"
         fill="none"
         style="stroke:#9e9e9e" /><polyline
         id="polyline40"
         stroke="#000000"
         points="24.8 112.8 24.54 112.46 24.21 112.3 23.88 112.3 23.55 112.13 23.21 111.88 23.21 112.21 23.47 112.54 23.8 112.63 24.13 112.63 24.47 112.63 24.8 112.8"
         stroke-miterlimit="10"
         stroke-width="0.28222"
         fill="none"
         style="stroke:#9e9e9e" /><polyline
         id="polyline42"
         stroke="#000000"
         points="21.97 105.32 21.64 105.48 21.31 105.48 21.39 105.81 21.55 106.15 21.22 106.39 21.31 106.72 21.47 107.06 21.81 106.89 22.05 107.22 22.22 107.55 22.55 107.64 22.55 107.22 22.47 106.89 22.38 106.56 22.22 106.15 22.22 105.81 21.97 105.32"
         stroke-miterlimit="10"
         stroke-width="0.28222"
         fill="none"
         style="stroke:#9e9e9e" /><polyline
         id="polyline44"
         stroke="#000000"
         points="30.29 114.62 30.45 114.96 30.78 115.2 31.12 115.29 31.45 115.03 31.36 114.7 31.03 114.62 30.29 114.62"
         stroke-miterlimit="10"
         stroke-width="0.28222"
         fill="none"
         style="stroke:#9e9e9e" /><polyline
         id="polyline46"
         stroke="#000000"
         points="30.12 115.03 29.79 114.99 29.45 114.99 29.12 115.12 28.96 115.46 29.29 115.7 29.62 115.46 29.95 115.46 30.29 115.53 30.45 115.2 30.12 115.03"
         stroke-miterlimit="10"
         stroke-width="0.28222"
         fill="none"
         style="stroke:#9e9e9e" /><polyline
         id="polyline48"
         stroke="#000000"
         points="46.58 65.66 46.91 65.5 47.24 65.59 47.49 65.92 47.49 66.25 47.65 66.58 47.65 66.92 47.65 67.25 47.58 67.58 47.58 67.91 47.32 68.25 46.99 68.49 46.66 68.49 46.32 68.66 45.99 68.91 45.66 69.08 45.49 69.41 45.16 69.58 44.83 69.65 44.5 69.82 44.16 70.15 44 70.49 43.75 70.82 43.42 71.15 43.17 71.48 42.83 71.82 42.59 72.15 42.33 72.48 42.09 72.81 41.84 73.14 41.59 73.48 41.43 73.81 41.34 74.14 41.26 74.47 41.17 74.81 41.09 75.14 41.09 75.47 40.93 75.8 40.84 76.14 40.76 76.47 40.76 76.8 40.67 77.13 40.67 77.47 40.67 77.8 40.59 78.13 40.34 78.46 40.26 78.8 40.17 79.13 40.17 79.46 40.26 79.79 40.34 80.13 40.34 80.46 40.43 80.79 40.76 80.96 41.09 81.12 41.43 81.29 41.76 81.46 42.09 81.62 42.33 81.95 42.26 82.29 42 82.62 42 82.95 42.33 83.28 42.67 83.54 42.83 83.87 42.83 84.2 42.76 84.54 42.59 84.87 42.42 85.2 42.09 85.53 41.84 85.87 41.67 86.2 41.5 86.53 41.26 86.86 40.93 86.86 40.59 86.94 40.17 87.2 39.84 87.27 39.51 87.36 39.18 87.53 38.84 87.7 38.51 87.7 38.09 87.86 37.76 87.94 37.44 88.03 37.1 88.03 36.77 88.27 36.44 88.03 36.11 88.19 35.77 87.94 35.35 87.7 35.19 88.03 35.27 88.36 35.61 88.6 35.68 88.94 35.61 89.27 35.27 89.52 35.27 89.86 35.19 90.19 35.11 90.52 35.35 90.85 35.44 91.19 35.11 91.52 34.69 91.68 34.35 91.68 34.02 91.68 33.69 91.85 33.36 91.85 33.02 91.52 32.69 91.35 32.36 91.26 32.03 91.19 31.86 91.52 31.78 91.85 31.86 92.18 32.03 92.52 32.03 92.85 32.03 93.18 32.36 93.42 32.69 93.51 33.02 93.76 33.36 93.51 33.69 93.35 33.78 93.68 33.86 94.01 33.94 94.34 33.61 94.51 33.28 94.51 33.11 94.18 32.78 94.18 32.45 94.18 32.12 94.34 32.19 94.68 32.53 94.84 32.86 94.84 32.86 95.18 32.53 95.25 32.19 95.42 31.86 95.67 31.86 96.01 31.86 96.34 31.95 96.67 32.03 97 32.19 97.34 32.03 97.67 31.69 97.75 31.69 98.08 31.69 98.41 31.36 98.5 31.03 98.41 30.7 98.41 30.53 98.74 30.2 98.83 29.87 99.08 29.7 99.41 29.62 99.74 29.53 100.07 29.53 100.41 29.62 100.74 29.7 101.07 30.03 101.33 30.36 101.49 30.7 101.82 31.03 101.9 31.36 101.82 31.69 101.66 31.95 101.99 32.03 102.32 32.03 102.66 31.78 102.99 31.78 103.32 31.45 103.65 31.12 103.82 30.78 104.06 30.45 104.4 30.12 104.73 29.95 105.06 29.7 105.39 30.03 105.39 30.12 105.73 29.87 106.06 29.7 106.39 29.7 106.72 29.37 106.81 29.03 106.48 28.87 106.81 29.03 107.14 28.87 107.48 28.7 107.81 28.2 108.64 28.53 108.55 28.79 108.88 28.87 109.22 28.87 109.64 29.2 109.8 29.53 109.97 29.79 110.3 29.62 110.63 29.29 110.63 28.87 110.47 28.53 110.63 28.37 110.3 27.96 110.3 27.63 110.3 27.29 110.3 26.96 110.3 26.63 110.38 26.3 110.47 25.96 110.47 25.63 110.3 25.54 109.97 25.46 109.64 25.3 109.3 25.21 108.97 25.3 108.64 25.3 108.31 25.13 107.97 24.8 108.22 24.47 108.38 24.13 108.31 23.88 107.97 23.64 107.64 23.71 107.31 23.71 106.98 23.71 106.65 23.8 106.31 23.88 105.98 24.05 105.65 24.3 105.32 24.47 104.98 24.47 104.65 24.21 104.32 24.21 103.99 24.21 103.65 24.3 103.32 24.47 102.99 24.47 102.66 24.54 102.32 24.71 101.99 24.8 101.66 24.54 101.33 24.54 100.99 24.38 100.93 24.47 100.51 24.47 100.17 24.54 99.84 24.88 99.51 24.8 99.18 24.47 99.01 24.13 98.84 23.8 98.6 24.13 98.51 24.47 98.51 24.88 98.43 25.21 98.18 25.04 97.85 24.71 97.68 24.38 97.85 24.05 97.68 24.05 97.35 23.97 97.02 23.88 96.68 23.88 96.35 23.88 96.02 23.71 95.69 23.38 95.44 23.3 95.11 23.3 94.78 23.55 94.52 23.64 94.19 23.64 93.86 23.47 93.52 23.3 93.19 23.14 92.86 23.05 92.53 23.05 92.19 23.05 91.86 23.05 91.53 23.05 91.2 23.05 90.86 23.05 90.53 23.14 90.2 23.21 89.87 23.3 89.53 23.3 89.2 23.3 88.87 23.64 88.63 23.97 88.29 23.88 87.96 23.8 87.63 23.64 87.3 23.47 86.96 23.3 86.63 23.3 86.3 23.47 85.97 23.38 85.63 23.3 85.3 23.3 84.97 23.55 84.64 23.8 84.3 23.88 83.97 24.05 83.64 23.88 83.31 23.71 82.97 23.64 82.64 23.71 82.31 24.05 82.14 24.13 81.81 24.3 81.48 24.3 81.15 24.63 80.98 24.71 80.81 24.71 80.48 24.63 80.15 24.63 79.82 24.54 79.48 24.3 79.15 24.13 78.82 24.05 78.65 24.13 78.32 23.97 77.99 23.8 77.66 23.64 77.32 23.88 76.99 23.55 76.66 23.21 76.33 22.97 75.99 23.05 75.66 23.38 75.57 23.64 75.24 23.55 74.91 23.55 74.57 23.71 74.24 23.88 73.91 23.8 73.58 23.64 73.24 23.55 72.91 23.47 72.58 23.64 72.25 23.8 71.91 23.88 71.58 23.97 71.17 24.05 70.84 24.21 70.51 24.38 70.18 24.47 69.84 24.63 69.51 24.88 69.18 25.21 68.85 25.21 68.51 25.54 68.26 25.46 67.93 25.21 67.59 25.21 67.26 25.38 66.93 25.3 66.6 25.13 66.26 25.04 65.93 25.04 65.6 25.3 65.27 25.3 64.93 25.21 64.6 25.46 64.1 27.04 63.1 27.13 61.53 27.13 61.2 27.04 61.03 27.13 60.7 27.46 60.61 27.79 60.37 27.87 60.04 28.2 59.95 28.37 59.61 28.7 59.61 29.03 59.78 29.37 59.95 29.7 60.04 30.03 59.95 30.36 59.87 30.7 59.87 31.03 60.11 31.03 60.45 31.2 60.78 31.53 60.87 31.53 60.53 31.62 60.2 31.78 59.87 31.95 59.54 32.28 59.54 32.69 59.54 33.11 59.54 33.45 59.54 33.78 59.78 34.02 59.95 34.35 60.2 34.61 60.53 34.78 60.87 35.11 61.11 35.44 61.44 35.77 61.78 36.11 61.94 36.44 62.2 36.77 62.2 37.1 62.36 37.44 62.69 37.76 62.69 38.01 63.03 38.34 63.1 38.68 63.36 39.01 63.69 39.34 63.86 39.67 64.02 40.01 64.19 40.34 64.19 40.67 64.27 41 64.36 41.34 64.6 41.67 64.86 41.67 65.19 41.43 65.52 41.26 65.85 40.93 66.19 40.84 66.52 40.67 66.93 40.43 67.26 40.34 67.59 40.26 67.93 40.26 68.26 40.59 68.18 40.93 68.18 41.26 68.26 41.59 68.42 41.92 68.51 42.26 68.51 42.59 68.59 42.92 68.59 43.25 68.59 43.59 68.68 43.92 68.42 44.25 68.51 44.58 68.51 44.92 68.26 45.08 67.93 45.33 67.59 45.66 67.35 45.99 67.18 46.25 66.85 46.25 66.52 46.16 66.19 46.25 65.85 46.58 65.66"
         stroke-miterlimit="10"
         stroke-width="0.28222"
         fill="none"
         style="stroke:#9e9e9e" /><polyline
         id="polyline50"
         stroke="#000000"
         points="30.12 114.04 30.45 114.29 30.78 114.46 31.12 114.46 31.45 114.46 31.78 114.54 32.12 114.7 32.53 114.62 32.86 114.54 33.19 114.46 33.52 114.37 33.45 114.04 33.11 114.04 32.78 113.96 32.45 113.96 32.19 113.63 31.86 113.54 31.53 113.46 31.2 113.29 31.03 112.96 30.7 112.8 30.45 112.46 30.29 112.13 29.95 112.13 30.03 111.8 30.03 111.47 29.79 111.13 29.7 110.97 29.7 111.3 29.7 111.63 29.7 112.13 29.79 112.46 29.87 113.04 29.95 113.54 29.95 113.96 30.12 114.04"
         stroke-miterlimit="10"
         stroke-width="0.28222"
         fill="none"
         style="stroke:#9e9e9e" /><polyline
         id="polyline52"
         stroke="#000000"
         points="41.59 73.48 41.43 73.81 41.34 74.14 41.26 74.47 41.17 74.81 41.09 75.14 41.09 75.47 40.93 75.8 40.84 76.14 40.76 76.47 40.76 76.8 40.67 77.13 40.67 77.47 40.67 77.8 40.59 78.13 40.34 78.46 40.43 78.89 40.43 79.22 40.51 79.55 40.59 79.88 40.93 80.13 41.26 80.38 41.59 80.38 41.92 80.29 42.26 80.38 42.5 80.71 42.67 81.05 43 81.21 43.33 81.21 43.66 81.21 44 81.05 44.33 81.12 44.66 81.21 44.99 81.29 45.33 81.38 45.66 81.38 45.99 81.21 46.25 80.88 46.58 80.79 46.91 80.55 46.99 80.22 47.24 79.88 47.58 79.63 47.58 79.3 47.41 78.96 47.24 78.63 47.41 78.3 47.58 77.97 47.91 77.97 47.91 77.63 47.58 77.3 47.32 76.97 47.08 76.64 46.82 76.3 46.49 76.06 46.16 75.8 45.83 75.64 45.49 75.39 45.16 75.14 44.99 74.81 44.75 74.47 44.42 74.56 44.09 74.4 43.83 74.06 43.5 73.73 43.17 73.48 43 73.14 42.67 73.14 42.33 73.31 42 73.4 41.59 73.48"
         stroke-miterlimit="10"
         stroke-width="0.28222"
         fill="none"
         style="stroke:#9e9e9e" /></g><circle
       style="fill:#283593;stroke-width:0.188969;stroke-linecap:round;stroke-linejoin:bevel;paint-order:stroke fill markers;stop-color:#000000"
       id="circle1606"
       cx="144.23772"
       cy="239.22653"
       r="1.029446" /><circle
       style="fill:#d81b60;stroke-width:0.188969;stroke-linecap:round;stroke-linejoin:bevel;paint-order:stroke fill markers;stop-color:#000000"
       id="path1604"
       cx="149.83841"
       cy="275.66974"
       r="1.029446" /><circle
       style="fill:#26a69a;stroke-width:0.188969;stroke-linecap:round;stroke-linejoin:bevel;paint-order:stroke fill markers;stop-color:#000000"
       id="path1604-3"
       cx="162.48523"
       cy="275.90518"
       r="1.029446" /><circle
       style="fill:#283593;stroke-width:0.188969;stroke-linecap:round;stroke-linejoin:bevel;paint-order:stroke fill markers;stop-color:#000000"
       id="circle1606-9"
       cx="184.45671"
       cy="271.83142"
       r="1.029446" /><circle
       style="fill:#d81b60;stroke-width:0.188969;stroke-linecap:round;stroke-linejoin:bevel;paint-order:stroke fill markers;stop-color:#000000"
       id="path1604-2"
       cx="181.92943"
       cy="281.65076"
       r="1.029446" /><circle
       style="fill:#26a69a;stroke-width:0.188969;stroke-linecap:round;stroke-linejoin:bevel;paint-order:stroke fill markers;stop-color:#000000"
       id="path1604-3-0"
       cx="187.59793"
       cy="281.47763"
       r="1.029446" /><path
       style="fill:none;stroke:#000000;stroke-width:0.264583px;stroke-linecap:butt;stroke-linejoin:miter;stroke-opacity:1;marker-start:url(#TriangleStart);marker-end:url(#marker2951)"
       d="m 144.60813,241.71748 4.99176,31.59693"
       id="path2450"
       sodipodi:nodetypes="cc" /><path
       style="fill:none;stroke:#000000;stroke-width:0.264583px;stroke-linecap:butt;stroke-linejoin:miter;stroke-opacity:1;marker-start:url(#TriangleStart-9);marker-end:url(#marker2951-6)"
       d="m 146.1532,241.32838 15.39179,32.3017"
       id="path2450-6"
       sodipodi:nodetypes="cc" /><path
       style="fill:none;stroke:#000000;stroke-width:0.264583px;stroke-linecap:butt;stroke-linejoin:miter;stroke-opacity:1;marker-start:url(#TriangleStart-2);marker-end:url(#marker2951-1)"
       d="m 152.35587,275.59413 7.72609,0.20948"
       id="path2450-7"
       sodipodi:nodetypes="cc" /><text
       xml:space="preserve"
       transform="matrix(0.26458333,0,0,0.26458333,0,230)"
       id="text3845"
       style="font-size:10.6667px;line-height:1.25;font-family:sans-serif;-inkscape-font-specification:sans-serif;text-decoration:none;text-decoration-line:none;text-decoration-color:#000000;white-space:pre;shape-inside:url(#rect3847);display:inline;fill:#d81b60;stroke:#9e9e9e;stroke-width:1.00157;stroke-linecap:round;stroke-linejoin:bevel;paint-order:stroke fill markers;stop-color:#000000" /><path
       style="fill:none;stroke:#000000;stroke-width:0.264583px;stroke-linecap:butt;stroke-linejoin:miter;stroke-opacity:1;marker-start:url(#TriangleStart);marker-end:url(#TriangleStart-9)"
       d="m 175.91988,270.77929 v 14.69273 h 16.93298"
       id="path3941" /><path
       style="fill:none;stroke:#616161;stroke-width:0.3;stroke-linecap:round;stroke-linejoin:bevel;stroke-dasharray:none;marker-end:url(#TriangleStart);paint-order:stroke fill markers;stop-color:#000000"
       id="path4696"
       sodipodi:type="arc"
       sodipodi:cx="298.67416"
       sodipodi:cy="146.1873"
       sodipodi:rx="1.9496028"
       sodipodi:ry="1.9496028"
       sodipodi:start="0"
       sodipodi:end="4.712389"
       sodipodi:arc-type="arc"
       d="m 300.62377,146.1873 a 1.9496028,1.9496028 0 0 1 -1.20353,1.8012 1.9496028,1.9496028 0 0 1 -2.12465,-0.42262 1.9496028,1.9496028 0 0 1 -0.42262,-2.12466 1.9496028,1.9496028 0 0 1 1.80119,-1.20352"
       sodipodi:open="true"
       transform="rotate(30.329853)" /><path
       style="fill:none;stroke:#757575;stroke-width:0.264583px;stroke-linecap:butt;stroke-linejoin:miter;stroke-dasharray:2.11666, 1.05833;stroke-dashoffset:0;stroke-opacity:1;marker-start:url(#TriangleStart);marker-end:url(#TriangleStart)"
       d="m 82.86064,259.58753 h 41.79503"
       id="path4904" /><text
       xml:space="preserve"
       transform="matrix(0.26458333,0,0,0.26458333,11.432208,228.11296)"
       id="text5348"
       style="font-style:normal;font-variant:normal;font-weight:normal;font-stretch:normal;font-size:10.6667px;line-height:1.25;font-family:Lato;-inkscape-font-specification:Lato;text-decoration:none;text-decoration-line:none;text-decoration-color:#000000;white-space:pre;shape-inside:url(#rect5350);display:inline;fill:#000000;stroke:none;stroke-width:1.13386;stroke-linecap:round;stroke-linejoin:bevel;stroke-dasharray:7.99999, 3.99999;stroke-dashoffset:0;paint-order:stroke fill markers;stop-color:#000000"><tspan
         x="281.92578"
         y="139.2423"
         id="tspan5870">consistent representation(s)
</tspan><tspan
         x="281.92578"
         y="152.57567"
         id="tspan5872">many different projections
</tspan><tspan
         x="281.92578"
         y="165.90905"
         id="tspan5874">reduce dimensions</tspan></text></g></svg>
